<?xml version='1.0' encoding='UTF-8'?>
<svg xmlns="http://www.w3.org/2000/svg" xmlns:xlink="http://www.w3.org/1999/xlink" viewBox="395.3192 137.9477 58.9447 85.6075" width="58.9447mm" height="85.6075mm"><defs><linearGradient xmlns:inkscape="http://www.inkscape.org/namespaces/inkscape" id="linearGradient192" inkscape:collect="always"><stop style="stop-color:#ffe07d;stop-opacity:1" offset="0" id="stop192"/><stop style="stop-color:#aa7c11;stop-opacity:1" offset="1" id="stop193"/></linearGradient><linearGradient xmlns:inkscape="http://www.inkscape.org/namespaces/inkscape" inkscape:collect="always" xlink:href="#linearGradient192" id="linearGradient193" x1="179.56093" y1="-12.018274" x2="-12.439077" y2="259.48172" gradientUnits="userSpaceOnUse"/></defs><g transform="translate(889.21455,510.97404)"><g id="Layer_x0020_1-19" style="clip-rule:nonzero;fill-rule:nonzero;stroke:#000000;stroke-miterlimit:4" transform="matrix(0.35277778,0,0,0.35277778,-493.8941,-373.02644)">
		<path style="fill:url(#linearGradient193);fill-opacity:1;stroke-width:0.5" d="m 166.83691,235.54785 c 0,3.77735 -3.08691,6.86914 -6.87109,6.86914 H 7.1108398 C 3.3359375,242.41699 0.25,239.3252 0.25,235.54785 V 7.1201172 C 0.25,3.3427734 3.3359375,0.25 7.1108398,0.25 H 159.96582 c 3.78418,0 6.87109,3.0927734 6.87109,6.8701172 z" id="path5-64"/>
		<g style="stroke:none" id="g7-54">
			<g id="g9-2">
				
			</g>
			
		</g>
		<g id="g15-532">
			
		</g>
		<g id="g19-6">
			
		</g>
		<g style="stroke:none" id="g23-8">
			<g id="g25-26">
				
			</g>
			
		</g>
		<g style="stroke:none" id="g31-6">
			<g id="g33-3">
				
			</g>
			
		</g>
	</g><text xmlns:sodipodi="http://sodipodi.sourceforge.net/DTD/sodipodi-0.dtd" xml:space="preserve" style="font-style:normal;font-weight:normal;font-size:4.23333px;line-height:0%;font-family:'Bitstream Vera Sans';letter-spacing:0px;word-spacing:0px;fill:#000000;fill-opacity:1;stroke:none;stroke-width:0.352778" x="-490.96231" y="-363.30798" id="text3788-94"><tspan sodipodi:role="line" id="tspan3790-56" x="-490.96231" y="-363.30798" style="font-style:normal;font-variant:normal;font-weight:normal;font-stretch:normal;font-size:11.2889px;line-height:1.25;font-family:Arial;-inkscape-font-specification:Arial;stroke-width:0.352778">6</tspan></text><g xmlns:inkscape="http://www.inkscape.org/namespaces/inkscape" transform="matrix(0.52410452,0,0,0.52410452,-512.9528,-369.49229)" id="layer1-1-4-2"><path id="cl-9-53" d="m 50.291466,22.698228 c 0,0 2.375,-1.9 2.375,-4.534 0,-1.542 -1.369,-4.102 -4.534,-4.102 -3.165,0 -4.534,2.561 -4.534,4.102 0,2.634 2.375,4.534 2.375,4.534 -2.638,-2.055 -7.341,-0.652 -7.341,3.455 0,2.056 1.68,4.318 4.318,4.318 3.165,0 4.534,-3.455 4.534,-3.455 0,0 0.402,3.938 -1.943,6.046 h 5.182 c -2.345,-2.107 -1.943,-6.046 -1.943,-6.046 0,0 1.369,3.455 4.534,3.455 2.639,0 4.318,-2.263 4.318,-4.318 0,-4.107 -4.703,-5.51 -7.341,-3.455 z" inkscape:connector-curvature="0" style="fill:#000000"/></g><text xmlns:sodipodi="http://sodipodi.sourceforge.net/DTD/sodipodi-0.dtd" xml:space="preserve" style="font-style:normal;font-weight:normal;font-size:4.23333px;line-height:0%;font-family:'Bitstream Vera Sans';letter-spacing:0px;word-spacing:0px;fill:#000000;fill-opacity:1;stroke:none;stroke-width:0.352778" x="437.85043" y="297.3674" id="text3788-8-5" transform="scale(-1)"><tspan sodipodi:role="line" id="tspan3790-7-66" x="437.85043" y="297.3674" style="font-style:normal;font-variant:normal;font-weight:normal;font-stretch:normal;font-size:11.2889px;line-height:1.25;font-family:Arial;-inkscape-font-specification:Arial;stroke-width:0.352778">6</tspan></text><g xmlns:inkscape="http://www.inkscape.org/namespaces/inkscape" transform="matrix(-0.52410452,0,0,-0.52410452,-415.85995,-291.01908)" id="layer1-1-4-1-1"><path id="cl-9-7-4" d="m 50.291466,22.698228 c 0,0 2.375,-1.9 2.375,-4.534 0,-1.542 -1.369,-4.102 -4.534,-4.102 -3.165,0 -4.534,2.561 -4.534,4.102 0,2.634 2.375,4.534 2.375,4.534 -2.638,-2.055 -7.341,-0.652 -7.341,3.455 0,2.056 1.68,4.318 4.318,4.318 3.165,0 4.534,-3.455 4.534,-3.455 0,0 0.402,3.938 -1.943,6.046 h 5.182 c -2.345,-2.107 -1.943,-6.046 -1.943,-6.046 0,0 1.369,3.455 4.534,3.455 2.639,0 4.318,-2.263 4.318,-4.318 0,-4.107 -4.703,-5.51 -7.341,-3.455 z" inkscape:connector-curvature="0" style="fill:#000000"/></g><g xmlns:inkscape="http://www.inkscape.org/namespaces/inkscape" transform="matrix(0.88638162,0,0,0.88638162,-516.46778,-376.38881)" id="layer1-1-4-8-46"><path id="cl-9-8-26" d="m 50.291466,22.698228 c 0,0 2.375,-1.9 2.375,-4.534 0,-1.542 -1.369,-4.102 -4.534,-4.102 -3.165,0 -4.534,2.561 -4.534,4.102 0,2.634 2.375,4.534 2.375,4.534 -2.638,-2.055 -7.341,-0.652 -7.341,3.455 0,2.056 1.68,4.318 4.318,4.318 3.165,0 4.534,-3.455 4.534,-3.455 0,0 0.402,3.938 -1.943,6.046 h 5.182 c -2.345,-2.107 -1.943,-6.046 -1.943,-6.046 0,0 1.369,3.455 4.534,3.455 2.639,0 4.318,-2.263 4.318,-4.318 0,-4.107 -4.703,-5.51 -7.341,-3.455 z" inkscape:connector-curvature="0" style="fill:#000000"/></g><g xmlns:inkscape="http://www.inkscape.org/namespaces/inkscape" transform="matrix(-0.88638162,0,0,-0.88638162,-431.12451,-283.67659)" id="layer1-1-4-8-0-8"><path id="cl-9-8-6-2" d="m 50.291466,22.698228 c 0,0 2.375,-1.9 2.375,-4.534 0,-1.542 -1.369,-4.102 -4.534,-4.102 -3.165,0 -4.534,2.561 -4.534,4.102 0,2.634 2.375,4.534 2.375,4.534 -2.638,-2.055 -7.341,-0.652 -7.341,3.455 0,2.056 1.68,4.318 4.318,4.318 3.165,0 4.534,-3.455 4.534,-3.455 0,0 0.402,3.938 -1.943,6.046 h 5.182 c -2.345,-2.107 -1.943,-6.046 -1.943,-6.046 0,0 1.369,3.455 4.534,3.455 2.639,0 4.318,-2.263 4.318,-4.318 0,-4.107 -4.703,-5.51 -7.341,-3.455 z" inkscape:connector-curvature="0" style="fill:#000000"/></g><g xmlns:inkscape="http://www.inkscape.org/namespaces/inkscape" transform="matrix(0.88638162,0,0,0.88638162,-516.46778,-351.79991)" id="layer1-1-4-8-2-5"><path id="cl-9-8-0-5" d="m 50.291466,22.698228 c 0,0 2.375,-1.9 2.375,-4.534 0,-1.542 -1.369,-4.102 -4.534,-4.102 -3.165,0 -4.534,2.561 -4.534,4.102 0,2.634 2.375,4.534 2.375,4.534 -2.638,-2.055 -7.341,-0.652 -7.341,3.455 0,2.056 1.68,4.318 4.318,4.318 3.165,0 4.534,-3.455 4.534,-3.455 0,0 0.402,3.938 -1.943,6.046 h 5.182 c -2.345,-2.107 -1.943,-6.046 -1.943,-6.046 0,0 1.369,3.455 4.534,3.455 2.639,0 4.318,-2.263 4.318,-4.318 0,-4.107 -4.703,-5.51 -7.341,-3.455 z" inkscape:connector-curvature="0" style="fill:#000000"/></g><g xmlns:inkscape="http://www.inkscape.org/namespaces/inkscape" transform="matrix(0.88638162,0,0,0.88638162,-497.84639,-376.45009)" id="layer1-1-4-8-8"><path id="cl-9-8-9" d="m 50.291466,22.698228 c 0,0 2.375,-1.9 2.375,-4.534 0,-1.542 -1.369,-4.102 -4.534,-4.102 -3.165,0 -4.534,2.561 -4.534,4.102 0,2.634 2.375,4.534 2.375,4.534 -2.638,-2.055 -7.341,-0.652 -7.341,3.455 0,2.056 1.68,4.318 4.318,4.318 3.165,0 4.534,-3.455 4.534,-3.455 0,0 0.402,3.938 -1.943,6.046 h 5.182 c -2.345,-2.107 -1.943,-6.046 -1.943,-6.046 0,0 1.369,3.455 4.534,3.455 2.639,0 4.318,-2.263 4.318,-4.318 0,-4.107 -4.703,-5.51 -7.341,-3.455 z" inkscape:connector-curvature="0" style="fill:#000000"/></g><g xmlns:inkscape="http://www.inkscape.org/namespaces/inkscape" transform="matrix(-0.88638162,0,0,-0.88638162,-412.50312,-283.73788)" id="layer1-1-4-8-0-2"><path id="cl-9-8-6-6" d="m 50.291466,22.698228 c 0,0 2.375,-1.9 2.375,-4.534 0,-1.542 -1.369,-4.102 -4.534,-4.102 -3.165,0 -4.534,2.561 -4.534,4.102 0,2.634 2.375,4.534 2.375,4.534 -2.638,-2.055 -7.341,-0.652 -7.341,3.455 0,2.056 1.68,4.318 4.318,4.318 3.165,0 4.534,-3.455 4.534,-3.455 0,0 0.402,3.938 -1.943,6.046 h 5.182 c -2.345,-2.107 -1.943,-6.046 -1.943,-6.046 0,0 1.369,3.455 4.534,3.455 2.639,0 4.318,-2.263 4.318,-4.318 0,-4.107 -4.703,-5.51 -7.341,-3.455 z" inkscape:connector-curvature="0" style="fill:#000000"/></g><g xmlns:inkscape="http://www.inkscape.org/namespaces/inkscape" transform="matrix(0.88638162,0,0,0.88638162,-497.84639,-351.8612)" id="layer1-1-4-8-2-6-1"><path id="cl-9-8-0-4" d="m 50.291466,22.698228 c 0,0 2.375,-1.9 2.375,-4.534 0,-1.542 -1.369,-4.102 -4.534,-4.102 -3.165,0 -4.534,2.561 -4.534,4.102 0,2.634 2.375,4.534 2.375,4.534 -2.638,-2.055 -7.341,-0.652 -7.341,3.455 0,2.056 1.68,4.318 4.318,4.318 3.165,0 4.534,-3.455 4.534,-3.455 0,0 0.402,3.938 -1.943,6.046 h 5.182 c -2.345,-2.107 -1.943,-6.046 -1.943,-6.046 0,0 1.369,3.455 4.534,3.455 2.639,0 4.318,-2.263 4.318,-4.318 0,-4.107 -4.703,-5.51 -7.341,-3.455 z" inkscape:connector-curvature="0" style="fill:#000000"/></g></g></svg>