<?xml version='1.0' encoding='UTF-8'?>
<svg xmlns="http://www.w3.org/2000/svg" xmlns:xlink="http://www.w3.org/1999/xlink" viewBox="331.2610 356.0366 58.9447 85.6075" width="58.9447mm" height="85.6075mm"><defs><linearGradient xmlns:inkscape="http://www.inkscape.org/namespaces/inkscape" id="linearGradient242" inkscape:collect="always"><stop style="stop-color:#ffe07d;stop-opacity:1" offset="0" id="stop242"/><stop style="stop-color:#aa7c11;stop-opacity:1" offset="1" id="stop243"/></linearGradient><linearGradient xmlns:inkscape="http://www.inkscape.org/namespaces/inkscape" inkscape:collect="always" xlink:href="#linearGradient242" id="linearGradient243" x1="173.64546" y1="-4.7232571" x2="-16.85454" y2="262.27673" gradientUnits="userSpaceOnUse"/></defs><g transform="translate(889.21455,510.97404)"><g id="Layer_x0020_1-33" style="clip-rule:nonzero;fill-rule:nonzero;stroke:#000000;stroke-miterlimit:4" transform="matrix(0.35277778,0,0,0.35277778,-557.95309,-154.93746)">
		<path style="fill:url(#linearGradient243);fill-opacity:1;stroke-width:0.5" d="m 166.83691,235.54785 c 0,3.77735 -3.08691,6.86914 -6.87109,6.86914 H 7.1108398 C 3.3359375,242.41699 0.25,239.3252 0.25,235.54785 V 7.1201172 C 0.25,3.3427734 3.3359375,0.25 7.1108398,0.25 H 159.96582 c 3.78418,0 6.87109,3.0927734 6.87109,6.8701172 z" id="path5-70"/>
		<g style="stroke:none" id="g7-95">
			<g id="g9-58">
				
			</g>
			
		</g>
		<g id="g15-37">
			
		</g>
		<g id="g19-837">
			
		</g>
		<g style="stroke:none" id="g23-93">
			<g id="g25-91">
				
			</g>
			
		</g>
		<g style="stroke:none" id="g31-8">
			<g id="g33-2">
				
			</g>
			
		</g>
	</g><text xmlns:sodipodi="http://sodipodi.sourceforge.net/DTD/sodipodi-0.dtd" xml:space="preserve" style="font-style:normal;font-weight:normal;font-size:4.23333px;line-height:0%;font-family:'Bitstream Vera Sans';letter-spacing:0px;word-spacing:0px;fill:#000000;fill-opacity:1;stroke:none;stroke-width:0.352778" x="-554.93799" y="-145.05499" id="text3788-80"><tspan sodipodi:role="line" id="tspan3790-18" x="-554.93799" y="-145.05499" style="font-style:normal;font-variant:normal;font-weight:normal;font-stretch:normal;font-size:11.2889px;line-height:1.25;font-family:Arial;-inkscape-font-specification:Arial;stroke-width:0.352778">5</tspan></text><g xmlns:inkscape="http://www.inkscape.org/namespaces/inkscape" xmlns:sodipodi="http://sodipodi.sourceforge.net/DTD/sodipodi-0.dtd" transform="matrix(0.53219862,0,0,0.48659532,-551.98088,-139.03921)" id="layer1-7-48"><path id="sl-6" d="M 7.989,3.103 C 7.747,-0.954 0.242,-8.59 0,-10.5 c -0.242,1.909 -7.747,9.545 -7.989,13.603 -0.169,2.868 1.695,4.057 3.39,4.057 1.8351685,-0.021581 3.3508701,-2.8006944 3.873,-3.341 0.242,0.716 -1.603,6.682 -2.179,6.682 H 2.906 C 2.33,10.501 0.485,4.535 0.727,3.819 1.1841472,4.3152961 2.5241276,7.0768295 4.601,7.16 6.295,7.159 8.158,5.971 7.989,3.103 Z" inkscape:connector-curvature="0" style="fill:#000000" sodipodi:nodetypes="cccccccccc"/></g><g xmlns:inkscape="http://www.inkscape.org/namespaces/inkscape" xmlns:sodipodi="http://sodipodi.sourceforge.net/DTD/sodipodi-0.dtd" transform="matrix(0.93439506,0,0,0.85432816,-538.12314,-137.52223)" id="layer1-7-88-0"><path id="sl-4-93" d="M 7.989,3.103 C 7.747,-0.954 0.242,-8.59 0,-10.5 c -0.242,1.909 -7.747,9.545 -7.989,13.603 -0.169,2.868 1.695,4.057 3.39,4.057 1.8351685,-0.021581 3.3508701,-2.8006944 3.873,-3.341 0.242,0.716 -1.603,6.682 -2.179,6.682 H 2.906 C 2.33,10.501 0.485,4.535 0.727,3.819 1.1841472,4.3152961 2.5241276,7.0768295 4.601,7.16 6.295,7.159 8.158,5.971 7.989,3.103 Z" inkscape:connector-curvature="0" style="fill:#000000" sodipodi:nodetypes="cccccccccc"/></g><text xmlns:sodipodi="http://sodipodi.sourceforge.net/DTD/sodipodi-0.dtd" xml:space="preserve" style="font-style:normal;font-weight:normal;font-size:4.23333px;line-height:0%;font-family:'Bitstream Vera Sans';letter-spacing:0px;word-spacing:0px;fill:#000000;fill-opacity:1;stroke:none;stroke-width:0.352778" x="501.86926" y="79.046486" id="text3788-7-0" transform="scale(-1)"><tspan sodipodi:role="line" id="tspan3790-6-0" x="501.86926" y="79.046486" style="font-style:normal;font-variant:normal;font-weight:normal;font-stretch:normal;font-size:11.2889px;line-height:1.25;font-family:Arial;-inkscape-font-specification:Arial;stroke-width:0.352778">5</tspan></text><g xmlns:inkscape="http://www.inkscape.org/namespaces/inkscape" xmlns:sodipodi="http://sodipodi.sourceforge.net/DTD/sodipodi-0.dtd" transform="matrix(-0.53219862,0,0,-0.48659532,-504.95701,-85.071909)" id="layer1-7-3-8"><path id="sl-1-7" d="M 7.989,3.103 C 7.747,-0.954 0.242,-8.59 0,-10.5 c -0.242,1.909 -7.747,9.545 -7.989,13.603 -0.169,2.868 1.695,4.057 3.39,4.057 1.8351685,-0.021581 3.3508701,-2.8006944 3.873,-3.341 0.242,0.716 -1.603,6.682 -2.179,6.682 H 2.906 C 2.33,10.501 0.485,4.535 0.727,3.819 1.1841472,4.3152961 2.5241276,7.0768295 4.601,7.16 6.295,7.159 8.158,5.971 7.989,3.103 Z" inkscape:connector-curvature="0" style="fill:#000000" sodipodi:nodetypes="cccccccccc"/></g><g xmlns:inkscape="http://www.inkscape.org/namespaces/inkscape" xmlns:sodipodi="http://sodipodi.sourceforge.net/DTD/sodipodi-0.dtd" transform="matrix(-0.93439506,0,0,-0.85432816,-538.10718,-86.579244)" id="layer1-7-88-7-6"><path id="sl-4-5-35" d="M 7.989,3.103 C 7.747,-0.954 0.242,-8.59 0,-10.5 c -0.242,1.909 -7.747,9.545 -7.989,13.603 -0.169,2.868 1.695,4.057 3.39,4.057 1.8351685,-0.021581 3.3508701,-2.8006944 3.873,-3.341 0.242,0.716 -1.603,6.682 -2.179,6.682 H 2.906 C 2.33,10.501 0.485,4.535 0.727,3.819 1.1841472,4.3152961 2.5241276,7.0768295 4.601,7.16 6.295,7.159 8.158,5.971 7.989,3.103 Z" inkscape:connector-curvature="0" style="fill:#000000" sodipodi:nodetypes="cccccccccc"/></g><g xmlns:inkscape="http://www.inkscape.org/namespaces/inkscape" xmlns:sodipodi="http://sodipodi.sourceforge.net/DTD/sodipodi-0.dtd" transform="matrix(0.93439506,0,0,0.85432816,-528.49802,-112.93316)" id="layer1-7-88-6-6"><path id="sl-4-8-5" d="M 7.989,3.103 C 7.747,-0.954 0.242,-8.59 0,-10.5 c -0.242,1.909 -7.747,9.545 -7.989,13.603 -0.169,2.868 1.695,4.057 3.39,4.057 1.8351685,-0.021581 3.3508701,-2.8006944 3.873,-3.341 0.242,0.716 -1.603,6.682 -2.179,6.682 H 2.906 C 2.33,10.501 0.485,4.535 0.727,3.819 1.1841472,4.3152961 2.5241276,7.0768295 4.601,7.16 6.295,7.159 8.158,5.971 7.989,3.103 Z" inkscape:connector-curvature="0" style="fill:#000000" sodipodi:nodetypes="cccccccccc"/></g><g xmlns:inkscape="http://www.inkscape.org/namespaces/inkscape" xmlns:sodipodi="http://sodipodi.sourceforge.net/DTD/sodipodi-0.dtd" transform="matrix(0.93439506,0,0,0.85432816,-519.17189,-137.4765)" id="layer1-7-88-8"><path id="sl-4-9" d="M 7.989,3.103 C 7.747,-0.954 0.242,-8.59 0,-10.5 c -0.242,1.909 -7.747,9.545 -7.989,13.603 -0.169,2.868 1.695,4.057 3.39,4.057 1.8351685,-0.021581 3.3508701,-2.8006944 3.873,-3.341 0.242,0.716 -1.603,6.682 -2.179,6.682 H 2.906 C 2.33,10.501 0.485,4.535 0.727,3.819 1.1841472,4.3152961 2.5241276,7.0768295 4.601,7.16 6.295,7.159 8.158,5.971 7.989,3.103 Z" inkscape:connector-curvature="0" style="fill:#000000" sodipodi:nodetypes="cccccccccc"/></g><g xmlns:inkscape="http://www.inkscape.org/namespaces/inkscape" xmlns:sodipodi="http://sodipodi.sourceforge.net/DTD/sodipodi-0.dtd" transform="matrix(-0.93439506,0,0,-0.85432816,-519.15593,-86.533513)" id="layer1-7-88-7-2-8"><path id="sl-4-5-6" d="M 7.989,3.103 C 7.747,-0.954 0.242,-8.59 0,-10.5 c -0.242,1.909 -7.747,9.545 -7.989,13.603 -0.169,2.868 1.695,4.057 3.39,4.057 1.8351685,-0.021581 3.3508701,-2.8006944 3.873,-3.341 0.242,0.716 -1.603,6.682 -2.179,6.682 H 2.906 C 2.33,10.501 0.485,4.535 0.727,3.819 1.1841472,4.3152961 2.5241276,7.0768295 4.601,7.16 6.295,7.159 8.158,5.971 7.989,3.103 Z" inkscape:connector-curvature="0" style="fill:#000000" sodipodi:nodetypes="cccccccccc"/></g></g></svg>