<?xml version='1.0' encoding='UTF-8'?>
<svg xmlns="http://www.w3.org/2000/svg" xmlns:xlink="http://www.w3.org/1999/xlink" viewBox="249.0592 239.8392 58.9447 85.6075" width="58.9447mm" height="85.6075mm"><defs><linearGradient xmlns:inkscape="http://www.inkscape.org/namespaces/inkscape" id="linearGradient214" inkscape:collect="always"><stop style="stop-color:#ffe07d;stop-opacity:1" offset="0" id="stop214"/><stop style="stop-color:#aa7c11;stop-opacity:1" offset="1" id="stop215"/></linearGradient><linearGradient xmlns:inkscape="http://www.inkscape.org/namespaces/inkscape" inkscape:collect="always" xlink:href="#linearGradient214" id="linearGradient215" x1="174.15952" y1="-2.3452539" x2="-29.840485" y2="270.65475" gradientUnits="userSpaceOnUse"/></defs><g transform="translate(889.21455,510.97404)"><g id="Layer_x0020_1-26" style="clip-rule:nonzero;fill-rule:nonzero;stroke:#000000;stroke-miterlimit:4" transform="matrix(0.35277778,0,0,0.35277778,-640.15527,-271.1347)">
		<path style="fill:url(#linearGradient215);fill-opacity:1;stroke-width:0.5" d="m 166.83691,235.54785 c 0,3.77735 -3.08691,6.86914 -6.87109,6.86914 H 7.1108398 C 3.3359375,242.41699 0.25,239.3252 0.25,235.54785 V 7.1201172 C 0.25,3.3427734 3.3359375,0.25 7.1108398,0.25 H 159.96582 c 3.78418,0 6.87109,3.0927734 6.87109,6.8701172 z" id="path5-06"/>
		<g style="stroke:none" id="g7-1">
			<g id="g9-11">
				
			</g>
			
		</g>
		<g id="g15-73">
			
		</g>
		<g id="g19-0">
			
		</g>
		<g style="stroke:none" id="g23-0">
			<g id="g25-48">
				
			</g>
			
		</g>
		<g style="stroke:none" id="g31-30">
			<g id="g33-12">
				
			</g>
			
		</g>
	</g><text xmlns:sodipodi="http://sodipodi.sourceforge.net/DTD/sodipodi-0.dtd" xml:space="preserve" style="font-style:normal;font-weight:normal;font-size:4.23333px;line-height:0%;font-family:'Bitstream Vera Sans';letter-spacing:0px;word-spacing:0px;fill:#df0000;fill-opacity:1;stroke:none;stroke-width:0.352778" x="-637.05951" y="-261.25223" id="text3788-90"><tspan sodipodi:role="line" id="tspan3790-38" x="-637.05951" y="-261.25223" style="font-style:normal;font-variant:normal;font-weight:normal;font-stretch:normal;font-size:11.2889px;line-height:1.25;font-family:Arial;-inkscape-font-specification:Arial;fill:#df0000;fill-opacity:1;stroke-width:0.352778">4</tspan></text><g xmlns:inkscape="http://www.inkscape.org/namespaces/inkscape" xmlns:sodipodi="http://sodipodi.sourceforge.net/DTD/sodipodi-0.dtd" transform="matrix(0.59065838,0,0,0.55279999,-634.09543,-254.77099)" id="layer1-9-6-85" style="fill:#df0000;fill-opacity:1"><path style="fill:#df0000;fill-opacity:1" inkscape:connector-curvature="0" id="hl-8-7" d="M 3.676,-9 C 0.433,-9 0,-5.523 0,-5.523 0,-5.523 -0.433,-9 -3.676,-9 -5.946,-9 -8,-7.441 -8,-4.5 -8,-0.614 -1.4208493,3.2938141 0,9 1.35201,3.2985969 8,-0.614 8,-4.5 8,-7.441 5.946,-9 3.676,-9 Z" sodipodi:nodetypes="scsscss"/></g><text xmlns:sodipodi="http://sodipodi.sourceforge.net/DTD/sodipodi-0.dtd" xml:space="preserve" style="font-style:normal;font-weight:normal;font-size:4.23333px;line-height:0%;font-family:'Bitstream Vera Sans';letter-spacing:0px;word-spacing:0px;fill:#df0000;fill-opacity:1;stroke:none;stroke-width:0.352778" x="584.12793" y="195.81129" id="text3788-4-7" transform="scale(-1)"><tspan sodipodi:role="line" id="tspan3790-3-0" x="584.12793" y="195.81129" style="font-style:normal;font-variant:normal;font-weight:normal;font-stretch:normal;font-size:11.2889px;line-height:1.25;font-family:Arial;-inkscape-font-specification:Arial;fill:#df0000;fill-opacity:1;stroke-width:0.352778">4</tspan></text><g xmlns:inkscape="http://www.inkscape.org/namespaces/inkscape" xmlns:sodipodi="http://sodipodi.sourceforge.net/DTD/sodipodi-0.dtd" transform="matrix(-0.59065838,0,0,-0.55279999,-587.18357,-202.29254)" id="layer1-9-6-5-8" style="fill:#df0000;fill-opacity:1"><path style="fill:#df0000;fill-opacity:1" inkscape:connector-curvature="0" id="hl-8-1-93" d="M 3.676,-9 C 0.433,-9 0,-5.523 0,-5.523 0,-5.523 -0.433,-9 -3.676,-9 -5.946,-9 -8,-7.441 -8,-4.5 -8,-0.614 -1.4208493,3.2938141 0,9 1.35201,3.2985969 8,-0.614 8,-4.5 8,-7.441 5.946,-9 3.676,-9 Z" sodipodi:nodetypes="scsscss"/></g><g xmlns:inkscape="http://www.inkscape.org/namespaces/inkscape" xmlns:sodipodi="http://sodipodi.sourceforge.net/DTD/sodipodi-0.dtd" transform="matrix(0.98037234,0,0,0.91753514,-620.36011,-248.25362)" id="layer1-9-6-8-07" style="fill:#df0000;fill-opacity:1" inkscape:export-xdpi="215.44792" inkscape:export-ydpi="215.44792"><path style="fill:#df0000;fill-opacity:1" inkscape:connector-curvature="0" id="hl-8-8-4" d="M 3.676,-9 C 0.433,-9 0,-5.523 0,-5.523 0,-5.523 -0.433,-9 -3.676,-9 -5.946,-9 -8,-7.441 -8,-4.5 -8,-0.614 -1.4208493,3.2938141 0,9 1.35201,3.2985969 8,-0.614 8,-4.5 8,-7.441 5.946,-9 3.676,-9 Z" sodipodi:nodetypes="scsscss"/></g><g xmlns:inkscape="http://www.inkscape.org/namespaces/inkscape" xmlns:sodipodi="http://sodipodi.sourceforge.net/DTD/sodipodi-0.dtd" transform="matrix(-0.98037234,0,0,-0.91753514,-620.36011,-208.60055)" id="layer1-9-6-8-9-7" style="fill:#df0000;fill-opacity:1" inkscape:export-xdpi="215.44792" inkscape:export-ydpi="215.44792"><path style="fill:#df0000;fill-opacity:1" inkscape:connector-curvature="0" id="hl-8-8-5-8" d="M 3.676,-9 C 0.433,-9 0,-5.523 0,-5.523 0,-5.523 -0.433,-9 -3.676,-9 -5.946,-9 -8,-7.441 -8,-4.5 -8,-0.614 -1.4208493,3.2938141 0,9 1.35201,3.2985969 8,-0.614 8,-4.5 8,-7.441 5.946,-9 3.676,-9 Z" sodipodi:nodetypes="scsscss"/></g><g xmlns:inkscape="http://www.inkscape.org/namespaces/inkscape" xmlns:sodipodi="http://sodipodi.sourceforge.net/DTD/sodipodi-0.dtd" transform="matrix(0.98037234,0,0,0.91753514,-601.10116,-248.15747)" id="layer1-9-6-8-0" style="fill:#df0000;fill-opacity:1" inkscape:export-filename="/home/byron/art/cards/final/layer1-9-6-8-9-8.png" inkscape:export-xdpi="215.44792" inkscape:export-ydpi="215.44792"><path style="fill:#df0000;fill-opacity:1" inkscape:connector-curvature="0" id="hl-8-8-6-3" d="M 3.676,-9 C 0.433,-9 0,-5.523 0,-5.523 0,-5.523 -0.433,-9 -3.676,-9 -5.946,-9 -8,-7.441 -8,-4.5 -8,-0.614 -1.4208493,3.2938141 0,9 1.35201,3.2985969 8,-0.614 8,-4.5 8,-7.441 5.946,-9 3.676,-9 Z" sodipodi:nodetypes="scsscss"/></g><g xmlns:inkscape="http://www.inkscape.org/namespaces/inkscape" xmlns:sodipodi="http://sodipodi.sourceforge.net/DTD/sodipodi-0.dtd" transform="matrix(-0.98037234,0,0,-0.91753514,-601.10116,-208.50441)" id="layer1-9-6-8-9-8" style="fill:#df0000;fill-opacity:1" inkscape:export-xdpi="215.44792" inkscape:export-ydpi="215.44792"><path style="fill:#df0000;fill-opacity:1" inkscape:connector-curvature="0" id="hl-8-8-5-9" d="M 3.676,-9 C 0.433,-9 0,-5.523 0,-5.523 0,-5.523 -0.433,-9 -3.676,-9 -5.946,-9 -8,-7.441 -8,-4.5 -8,-0.614 -1.4208493,3.2938141 0,9 1.35201,3.2985969 8,-0.614 8,-4.5 8,-7.441 5.946,-9 3.676,-9 Z" sodipodi:nodetypes="scsscss"/></g></g></svg>